<svg width="5" height="8" viewBox="0 0 5 8" fill="none" xmlns="http://www.w3.org/2000/svg">
<path fill-rule="evenodd" clip-rule="evenodd" d="M4.70706 7.70805C4.51817 7.89486 4.26322 7.99963 3.99756 7.99963C3.7319 7.99963 3.47695 7.89486 3.28806 7.70805L0.323059 4.76905C0.108059 4.55105 0.00105953 4.26905 0.00105953 3.99005C0.00105953 3.71105 0.108059 3.43405 0.323059 3.22105L3.27806 0.291054C3.46708 0.104487 3.72197 -0.00012207 3.98756 -0.00012207C4.25314 -0.00012207 4.50804 0.104487 4.69706 0.291054C4.79024 0.382885 4.86424 0.492326 4.91475 0.613013C4.96526 0.7337 4.99127 0.863224 4.99127 0.994054C4.99127 1.12488 4.96526 1.25441 4.91475 1.37509C4.86424 1.49578 4.79024 1.60522 4.69706 1.69705L2.38006 3.99505L4.70706 6.30205C4.79988 6.39409 4.87356 6.5036 4.92383 6.62426C4.97411 6.74492 5 6.87434 5 7.00505C5 7.13577 4.97411 7.26519 4.92383 7.38585C4.87356 7.50651 4.79988 7.61602 4.70706 7.70805Z" fill="#222222"/>
</svg>
