<svg width="30" height="30" viewBox="0 0 30 30" fill="none" xmlns="http://www.w3.org/2000/svg">
<circle cx="15" cy="15" r="15" fill="#DEE9FF"/>
<path fill-rule="evenodd" clip-rule="evenodd" d="M15 8V9.66667H21.2222V21.3333H15V23H21.2276C22.2053 23 23 22.2558 23 21.3375V9.6625C23.0002 9.44419 22.9546 9.22797 22.8656 9.02622C22.7766 8.82447 22.6461 8.64115 22.4814 8.48674C22.3168 8.33233 22.1213 8.20986 21.9062 8.12634C21.691 8.04282 21.4604 7.99989 21.2276 8H15Z" fill="#003399"/>
<path fill-rule="evenodd" clip-rule="evenodd" d="M7.8685 14.6667C7.63541 14.6695 7.41306 14.759 7.25024 14.9154C7.08742 15.0717 6.99745 15.2823 7.00006 15.5008C7.00006 15.96 7.3885 16.3333 7.8685 16.3333H17.688C17.9208 16.3307 18.1429 16.2415 18.3056 16.0854C18.4683 15.9293 18.5582 15.7191 18.5556 15.5008C18.5582 15.2825 18.4683 15.072 18.3057 14.9156C18.1431 14.7593 17.9209 14.6697 17.688 14.6667H7.8685Z" fill="#003399"/>
<path fill-rule="evenodd" clip-rule="evenodd" d="M15.2694 12.4208C15.0968 12.585 15.0001 12.8062 15.0001 13.0367C15.0001 13.2671 15.0968 13.4883 15.2694 13.6525L17.2222 15.5L15.2694 17.3475C15.0967 17.5113 14.9999 17.7323 14.9999 17.9625C14.9999 18.1927 15.0967 18.4137 15.2694 18.5775C15.6285 18.9183 16.2116 18.9183 16.5716 18.5775L19.176 16.115C19.3478 15.9507 19.4441 15.7297 19.4441 15.4996C19.4441 15.2695 19.3478 15.0485 19.176 14.8842L16.5716 12.4208C16.4862 12.3405 16.3847 12.2767 16.273 12.2332C16.1612 12.1897 16.0415 12.1673 15.9205 12.1673C15.7995 12.1673 15.6797 12.1897 15.568 12.2332C15.4562 12.2767 15.3548 12.3405 15.2694 12.4208Z" fill="#003399"/>
</svg>
