<svg width="30" height="30" viewBox="0 0 30 30" fill="none" xmlns="http://www.w3.org/2000/svg">
<path d="M15 2.14286C17.5429 2.14286 20.0287 2.89691 22.143 4.30968C24.2574 5.72244 25.9053 7.73045 26.8785 10.0798C27.8516 12.4291 28.1062 15.0143 27.6101 17.5083C27.114 20.0023 25.8895 22.2933 24.0914 24.0914C22.2933 25.8895 20.0023 27.114 17.5083 27.6101C15.0143 28.1062 12.4291 27.8516 10.0798 26.8784C7.73045 25.9053 5.72244 24.2574 4.30968 22.143C2.89692 20.0287 2.14286 17.5429 2.14286 15C2.14286 11.5901 3.49745 8.31981 5.90863 5.90863C8.31981 3.49744 11.5901 2.14286 15 2.14286ZM15 0C12.0333 0 9.13319 0.879735 6.66645 2.52796C4.19971 4.17618 2.27713 6.51886 1.14181 9.25975C0.00649925 12.0006 -0.290551 15.0166 0.288227 17.9263C0.867006 20.8361 2.29562 23.5088 4.3934 25.6066C6.49119 27.7044 9.16394 29.133 12.0736 29.7118C14.9834 30.2905 17.9994 29.9935 20.7403 28.8582C23.4811 27.7229 25.8238 25.8003 27.472 23.3335C29.1203 20.8668 30 17.9667 30 15C30 11.0217 28.4196 7.20644 25.6066 4.3934C22.7936 1.58035 18.9783 0 15 0Z" fill="#B91C1C"/>
<rect x="8.72969" y="8.73262" width="12.5364" height="12.5364" rx="1.65" fill="#B91C1C" stroke="#B91C1C" stroke-width="1.1"/>
</svg>
