<svg width="5" height="8" viewBox="0 0 5 8" fill="none" xmlns="http://www.w3.org/2000/svg">
<path fill-rule="evenodd" clip-rule="evenodd" d="M0.292941 7.70805C0.481833 7.89486 0.736777 7.99963 1.00244 7.99963C1.2681 7.99963 1.52305 7.89486 1.71194 7.70805L4.67694 4.76905C4.89194 4.55105 4.99894 4.26905 4.99894 3.99005C4.99894 3.71105 4.89194 3.43405 4.67694 3.22105L1.72194 0.291054C1.53292 0.104487 1.27803 -0.00012207 1.01244 -0.00012207C0.746856 -0.00012207 0.49196 0.104487 0.302941 0.291054C0.209757 0.382885 0.135759 0.492326 0.0852509 0.613013C0.0347429 0.7337 0.0087328 0.863224 0.0087328 0.994054C0.0087328 1.12488 0.0347429 1.25441 0.0852509 1.37509C0.135759 1.49578 0.209757 1.60522 0.302941 1.69705L2.61994 3.99505L0.292941 6.30205C0.20012 6.39409 0.126444 6.5036 0.0761652 6.62426C0.0258864 6.74492 0 6.87434 0 7.00505C0 7.13577 0.0258864 7.26519 0.0761652 7.38585C0.126444 7.50651 0.20012 7.61602 0.292941 7.70805Z" fill="#222222"/>
</svg>
