<svg width="24" height="24" viewBox="0 0 24 24" fill="none" xmlns="http://www.w3.org/2000/svg">
<circle cx="12" cy="12" r="12" fill="#DEE9FF"/>
<g clip-path="url(#clip0_31_6987)">
<path d="M16.6224 10.3796H13.7445V7.86796H12.8027C13.0942 7.47877 13.2509 7.0051 13.2488 6.51883C13.2488 5.79569 12.9067 5.11621 12.3558 4.74562L12.1221 4.58838L11.8885 4.74562C11.3376 5.11627 10.9955 5.79571 10.9955 6.51883C10.9935 7.00511 11.1502 7.47876 11.4418 7.86794H10.3957V10.3796H7.93639C7.53408 10.38 7.14838 10.54 6.8639 10.8245C6.57942 11.109 6.4194 11.4947 6.41895 11.897V16.6046C6.41919 16.8265 6.50748 17.0394 6.66443 17.1963C6.82139 17.3533 7.03419 17.4415 7.25615 17.4418H17.3027C17.5246 17.4415 17.7374 17.3533 17.8944 17.1963C18.0513 17.0394 18.1396 16.8265 18.1399 16.6046V11.897C18.1394 11.4947 17.9794 11.109 17.6949 10.8245C17.4104 10.5401 17.0247 10.38 16.6224 10.3796ZM12.1221 5.65655C12.305 5.88375 12.4116 6.192 12.4116 6.51885C12.4116 6.8457 12.305 7.15398 12.1221 7.38115C11.9393 7.15398 11.8327 6.8457 11.8327 6.51883C11.8327 6.19195 11.9393 5.88375 12.1221 5.65655ZM11.2329 8.70517H12.9073V10.3796H11.2329V8.70517ZM7.25615 11.897C7.25636 11.7167 7.3281 11.5438 7.45562 11.4163C7.58314 11.2887 7.75604 11.217 7.93639 11.2168H16.6224C16.8028 11.217 16.9757 11.2887 17.1032 11.4163C17.2307 11.5438 17.3025 11.7167 17.3027 11.897V12.7232L16.7376 12.9725C16.627 13.0212 16.5076 13.0463 16.3869 13.0463C16.2661 13.0463 16.1467 13.0212 16.0362 12.9725L15.0527 12.5386L14.0689 12.9725C13.9584 13.0211 13.839 13.0463 13.7182 13.0463C13.5975 13.0463 13.478 13.0211 13.3675 12.9725L12.3841 12.5385L11.4003 12.9725C11.2898 13.0211 11.1704 13.0462 11.0496 13.0462C10.9289 13.0462 10.8094 13.0211 10.6989 12.9725L9.71546 12.5386L8.73192 12.9725C8.62139 13.0211 8.50196 13.0462 8.38121 13.0462C8.26045 13.0462 8.14102 13.0211 8.03049 12.9725L7.25615 12.6309V11.897ZM17.3027 16.6046H7.25615V13.546L7.6925 13.7385C7.90953 13.834 8.14404 13.8833 8.38115 13.8833C8.61826 13.8833 8.85278 13.834 9.06981 13.7385L9.71546 13.4536L10.3611 13.7385C10.5782 13.834 10.8127 13.8833 11.0498 13.8833C11.2869 13.8833 11.5214 13.834 11.7384 13.7385L12.3841 13.4536L13.0297 13.7385C13.2467 13.834 13.4812 13.8833 13.7183 13.8833C13.9554 13.8833 14.1899 13.834 14.4069 13.7385L15.0527 13.4536L15.6983 13.7385C15.9153 13.834 16.1498 13.8833 16.3869 13.8833C16.624 13.8833 16.8585 13.834 17.0755 13.7385L17.303 13.6382L17.3032 16.6046H17.3027Z" fill="#003399"/>
</g>
<defs>
<clipPath id="clip0_31_6987">
<rect width="13.3953" height="13.3953" fill="white" transform="translate(5.58154 4.46509)"/>
</clipPath>
</defs>
</svg>
