<svg width="24" height="24" viewBox="0 0 24 24" fill="none" xmlns="http://www.w3.org/2000/svg">
<circle cx="12" cy="12" r="12" fill="#DEE9FF"/>
<g clip-path="url(#clip0_31_6978)">
<path d="M15.0698 13.9535H16.1861V15.0698H15.0698V13.9535ZM16.1861 11.7209H15.0698V12.8372H16.1861V11.7209Z" fill="#003399"/>
<path fill-rule="evenodd" clip-rule="evenodd" d="M12.8373 9.48842H18.4187V17.3024H6.13965V7.25586H12.8373V9.48842ZM10.0466 8.37214H11.721V9.48842H10.0466V8.37214ZM11.721 16.1861V15.0698H10.0466V16.1861H11.721ZM11.721 13.9535V12.8373H10.0466V13.9535H11.721ZM11.721 11.721V10.6047H10.0466V11.721H11.721ZM17.3024 16.1861V10.6047H12.8373V11.721H13.9536V12.8373H12.8373V13.9535H13.9536V15.0698H12.8373V16.1861H17.3024ZM7.25593 16.1861V15.0698H8.93035V16.1861H7.25593ZM7.25593 13.9535H8.93035V12.8373H7.25593V13.9535ZM8.93035 11.721V10.6047H7.25593V11.721H8.93035ZM7.25593 9.48842H8.93035V8.37214H7.25593V9.48842Z" fill="#003399"/>
</g>
<defs>
<clipPath id="clip0_31_6978">
<rect width="13.3953" height="13.3953" fill="white" transform="translate(5.58154 5.58142)"/>
</clipPath>
</defs>
</svg>
