<svg width="24" height="24" viewBox="0 0 24 24" fill="none" xmlns="http://www.w3.org/2000/svg">
<circle cx="12" cy="12" r="12" fill="#DEE9FF"/>
<path d="M8.93024 15.907H10.6047V12.5582H13.9535V15.907H15.6279V10.8838L12.2791 8.37214L8.93024 10.8838V15.907ZM8.93024 17.0233C8.62327 17.0233 8.36057 16.9141 8.14215 16.6957C7.92336 16.4769 7.81396 16.214 7.81396 15.907V10.8838C7.81396 10.707 7.85359 10.5396 7.93285 10.3814C8.01173 10.2233 8.12094 10.0931 8.26048 9.99074L11.6093 7.47912C11.7116 7.4047 11.8186 7.34888 11.9302 7.31167C12.0419 7.27446 12.1582 7.25586 12.2791 7.25586C12.4 7.25586 12.5163 7.27446 12.6279 7.31167C12.7395 7.34888 12.8465 7.4047 12.9488 7.47912L16.2977 9.99074C16.4372 10.0931 16.5466 10.2233 16.6259 10.3814C16.7048 10.5396 16.7442 10.707 16.7442 10.8838V15.907C16.7442 16.214 16.635 16.4769 16.4166 16.6957C16.1978 16.9141 15.9349 17.0233 15.6279 17.0233H12.8372V13.6745H11.7209V17.0233H8.93024Z" fill="#003399"/>
</svg>
