<svg width="24" height="24" viewBox="0 0 24 24" fill="none" xmlns="http://www.w3.org/2000/svg">
<circle cx="12" cy="12" r="12" fill="#DEE9FF"/>
<path d="M8 16C7.725 16 7.48967 15.9022 7.294 15.7065C7.098 15.5105 7 15.275 7 15V9C7 8.725 7.098 8.48967 7.294 8.294C7.48967 8.098 7.725 8 8 8H16C16.275 8 16.5105 8.098 16.7065 8.294C16.9022 8.48967 17 8.725 17 9V15C17 15.275 16.9022 15.5105 16.7065 15.7065C16.5105 15.9022 16.275 16 16 16H8ZM16 10L12.2625 12.3375C12.2208 12.3625 12.177 12.3812 12.131 12.3935C12.0853 12.4062 12.0417 12.4125 12 12.4125C11.9583 12.4125 11.9147 12.4062 11.869 12.3935C11.823 12.3812 11.7792 12.3625 11.7375 12.3375L8 10V15H16V10ZM12 11.5L16 9H8L12 11.5ZM8 10V10.125V9.3875V9.4V9V9.4V9.3935V10.125V10V15V10Z" fill="#003399"/>
</svg>
