<svg width="30" height="30" viewBox="0 0 30 30" fill="none" xmlns="http://www.w3.org/2000/svg">
<circle cx="15" cy="15" r="15" fill="#DEE9FF"/>
<path d="M7.6665 20.3334V18.4667C7.6665 18.089 7.76384 17.7416 7.9585 17.4247C8.15273 17.1083 8.41095 16.8667 8.73317 16.7001C9.42206 16.3556 10.1221 16.0972 10.8332 15.9247C11.5443 15.7527 12.2665 15.6667 12.9998 15.6667C13.7332 15.6667 14.4554 15.7527 15.1665 15.9247C15.8776 16.0972 16.5776 16.3556 17.2665 16.7001C17.5887 16.8667 17.8469 17.1083 18.0412 17.4247C18.2358 17.7416 18.3332 18.089 18.3332 18.4667V20.3334H7.6665ZM19.6665 20.3334V18.3334C19.6665 17.8445 19.5305 17.375 19.2585 16.9247C18.9861 16.475 18.5998 16.089 18.0998 15.7667C18.6665 15.8334 19.1998 15.9472 19.6998 16.1081C20.1998 16.2694 20.6665 16.4667 21.0998 16.7001C21.4998 16.9223 21.8054 17.1694 22.0165 17.4414C22.2276 17.7139 22.3332 18.0112 22.3332 18.3334V20.3334H19.6665ZM12.9998 15.0001C12.2665 15.0001 11.6387 14.739 11.1165 14.2167C10.5943 13.6945 10.3332 13.0667 10.3332 12.3334C10.3332 11.6001 10.5943 10.9723 11.1165 10.4501C11.6387 9.92786 12.2665 9.66675 12.9998 9.66675C13.7332 9.66675 14.3609 9.92786 14.8832 10.4501C15.4054 10.9723 15.6665 11.6001 15.6665 12.3334C15.6665 13.0667 15.4054 13.6945 14.8832 14.2167C14.3609 14.739 13.7332 15.0001 12.9998 15.0001ZM19.6665 12.3334C19.6665 13.0667 19.4054 13.6945 18.8832 14.2167C18.3609 14.739 17.7332 15.0001 16.9998 15.0001C16.8776 15.0001 16.7221 14.9863 16.5332 14.9587C16.3443 14.9307 16.1887 14.9001 16.0665 14.8667C16.3665 14.5112 16.5969 14.1167 16.7578 13.6834C16.9192 13.2501 16.9998 12.8001 16.9998 12.3334C16.9998 11.8667 16.9192 11.4167 16.7578 10.9834C16.5969 10.5501 16.3665 10.1556 16.0665 9.80008C16.2221 9.74453 16.3776 9.7083 16.5332 9.69141C16.6887 9.67497 16.8443 9.66675 16.9998 9.66675C17.7332 9.66675 18.3609 9.92786 18.8832 10.4501C19.4054 10.9723 19.6665 11.6001 19.6665 12.3334ZM8.99984 19.0001H16.9998V18.4667C16.9998 18.3445 16.9694 18.2334 16.9085 18.1334C16.8472 18.0334 16.7665 17.9556 16.6665 17.9001C16.0665 17.6001 15.4609 17.375 14.8498 17.2247C14.2387 17.075 13.6221 17.0001 12.9998 17.0001C12.3776 17.0001 11.7609 17.075 11.1498 17.2247C10.5387 17.375 9.93317 17.6001 9.33317 17.9001C9.23317 17.9556 9.15273 18.0334 9.09184 18.1334C9.0305 18.2334 8.99984 18.3445 8.99984 18.4667V19.0001ZM12.9998 13.6667C13.3665 13.6667 13.6805 13.5361 13.9418 13.2747C14.2027 13.0139 14.3332 12.7001 14.3332 12.3334C14.3332 11.9667 14.2027 11.653 13.9418 11.3921C13.6805 11.1307 13.3665 11.0001 12.9998 11.0001C12.6332 11.0001 12.3194 11.1307 12.0585 11.3921C11.7972 11.653 11.6665 11.9667 11.6665 12.3334C11.6665 12.7001 11.7972 13.0139 12.0585 13.2747C12.3194 13.5361 12.6332 13.6667 12.9998 13.6667Z" fill="#003399"/>
</svg>
