<svg width="30" height="30" viewBox="0 0 30 30" fill="none" xmlns="http://www.w3.org/2000/svg">
<circle cx="15" cy="15" r="15" fill="#DEE9FF"/>
<path d="M14.5 14C14.8283 14 15.1534 13.9353 15.4567 13.8097C15.76 13.6841 16.0356 13.4999 16.2678 13.2678C16.4999 13.0356 16.6841 12.76 16.8097 12.4567C16.9353 12.1534 17 11.8283 17 11.5C17 11.1717 16.9353 10.8466 16.8097 10.5433C16.6841 10.24 16.4999 9.96438 16.2678 9.73223C16.0356 9.50009 15.76 9.31594 15.4567 9.1903C15.1534 9.06466 14.8283 9 14.5 9C13.837 9 13.2011 9.26339 12.7322 9.73223C12.2634 10.2011 12 10.837 12 11.5C12 12.163 12.2634 12.7989 12.7322 13.2678C13.2011 13.7366 13.837 14 14.5 14V14Z" stroke="#003399" stroke-width="1.1" stroke-linecap="round" stroke-linejoin="round"/>
<path d="M19 14H23" stroke="#003399" stroke-width="1.1" stroke-linecap="round" stroke-linejoin="round"/>
<path d="M19 12H23" stroke="#003399" stroke-width="1.1" stroke-linecap="round" stroke-linejoin="round"/>
<path d="M20 11V15" stroke="#003399" stroke-width="1.1" stroke-linecap="round" stroke-linejoin="round"/>
<path d="M22 11V15.1379M9 20.5862V21H19.5405V20.5862C19.5405 19.0414 19.5405 18.269 19.2342 17.6786C18.9647 17.1596 18.5347 16.7376 18.0058 16.4731C17.4043 16.1724 16.6173 16.1724 15.0432 16.1724H13.4973C11.9232 16.1724 11.1362 16.1724 10.5347 16.4731C10.0058 16.7376 9.57586 17.1596 9.30638 17.6786C9 18.269 9 19.0414 9 20.5862Z" stroke="#003399" stroke-width="1.1" stroke-linecap="round" stroke-linejoin="round"/>
</svg>
