<svg width="24" height="24" viewBox="0 0 24 24" fill="none" xmlns="http://www.w3.org/2000/svg">
<circle cx="12" cy="12" r="12" fill="#DEE9FF"/>
<g clip-path="url(#clip0_31_7010)">
<path d="M11.4418 16.7442H13.1163C13.1907 16.7442 13.2558 16.7163 13.3116 16.6605C13.3674 16.6046 13.3953 16.5395 13.3953 16.4651C13.3953 16.3907 13.3674 16.3256 13.3116 16.2698C13.2558 16.2139 13.1907 16.186 13.1163 16.186H11.4418C11.3674 16.186 11.3023 16.2139 11.2465 16.2698C11.1907 16.3256 11.1628 16.3907 11.1628 16.4651C11.1628 16.5395 11.1907 16.6046 11.2465 16.6605C11.3023 16.7163 11.3674 16.7442 11.4418 16.7442ZM9.48835 18.4186C9.18137 18.4186 8.91867 18.3094 8.70026 18.091C8.48147 17.8722 8.37207 17.6093 8.37207 17.3023V7.25581C8.37207 6.94883 8.48147 6.68594 8.70026 6.46715C8.91867 6.24874 9.18137 6.13953 9.48835 6.13953H15.0697C15.3767 6.13953 15.6396 6.24874 15.8584 6.46715C16.0768 6.68594 16.186 6.94883 16.186 7.25581V17.3023C16.186 17.6093 16.0768 17.8722 15.8584 18.091C15.6396 18.3094 15.3767 18.4186 15.0697 18.4186H9.48835ZM9.48835 14.5116H15.0697V8.93022H9.48835V14.5116ZM9.48835 15.6279V17.3023H15.0697V15.6279H9.48835ZM9.48835 7.81395H15.0697V7.25581H9.48835V7.81395ZM9.48835 7.25581V7.81395V7.25581ZM9.48835 17.3023V15.6279V17.3023Z" fill="#003399"/>
</g>
<defs>
<clipPath id="clip0_31_7010">
<rect width="13.3953" height="13.3953" fill="white" transform="translate(5.58154 5.58142)"/>
</clipPath>
</defs>
</svg>
