<svg width="24" height="24" viewBox="0 0 24 24" fill="none" xmlns="http://www.w3.org/2000/svg">
<circle cx="12" cy="12" r="12" fill="#DEE9FF"/>
<path d="M12.2791 12.2791C12.5861 12.2791 12.8489 12.1698 13.0677 11.951C13.2862 11.7325 13.3954 11.4698 13.3954 11.1629C13.3954 10.8559 13.2862 10.593 13.0677 10.3742C12.8489 10.1558 12.5861 10.0466 12.2791 10.0466C11.9721 10.0466 11.7094 10.1558 11.491 10.3742C11.2722 10.593 11.1628 10.8559 11.1628 11.1629C11.1628 11.4698 11.2722 11.7325 11.491 11.951C11.7094 12.1698 11.9721 12.2791 12.2791 12.2791ZM12.2791 16.3815C13.414 15.3396 14.2558 14.393 14.8047 13.5417C15.3535 12.6907 15.6279 11.935 15.6279 11.2745C15.6279 10.2605 15.3046 9.43022 14.6579 8.78352C14.0115 8.1372 13.2186 7.81403 12.2791 7.81403C11.3395 7.81403 10.5464 8.1372 9.89973 8.78352C9.25341 9.43022 8.93024 10.2605 8.93024 11.2745C8.93024 11.935 9.20466 12.6907 9.7535 13.5417C10.3023 14.393 11.1442 15.3396 12.2791 16.3815ZM12.2791 17.8605C10.7814 16.5861 9.66289 15.4023 8.92355 14.3091C8.18383 13.2163 7.81396 12.2047 7.81396 11.2745C7.81396 9.87915 8.2629 8.76752 9.16076 7.93961C10.0582 7.11171 11.0977 6.69775 12.2791 6.69775C13.4605 6.69775 14.4999 7.11171 15.3974 7.93961C16.2953 8.76752 16.7442 9.87915 16.7442 11.2745C16.7442 12.2047 16.3745 13.2163 15.6352 14.3091C14.8955 15.4023 13.7768 16.5861 12.2791 17.8605Z" fill="#003399"/>
</svg>
